<svg width="20" height="20" viewBox="0 0 20 20" fill="none" xmlns="http://www.w3.org/2000/svg">
<rect width="20" height="20" rx="10" fill="#D1D5DB"/>
<path d="M11.6498 8.73325C12.0873 8.29566 12.3332 7.70217 12.3332 7.08333C12.3332 6.46449 12.0873 5.871 11.6498 5.43342C11.2122 4.99583 10.6187 4.75 9.99984 4.75C9.381 4.75 8.78751 4.99583 8.34992 5.43342C7.91234 5.871 7.6665 6.46449 7.6665 7.08333C7.6665 7.70217 7.91234 8.29566 8.34992 8.73325C8.78751 9.17083 9.381 9.41667 9.99984 9.41667C10.6187 9.41667 11.2122 9.17083 11.6498 8.73325Z" stroke="#252525" stroke-linecap="round" stroke-linejoin="round"/>
<path d="M7.11248 12.3626C7.87826 11.5969 8.91687 11.1667 9.99984 11.1667C11.0828 11.1667 12.1214 11.5969 12.8872 12.3626C13.653 13.1284 14.0832 14.167 14.0832 15.25H5.9165C5.9165 14.167 6.34671 13.1284 7.11248 12.3626Z" stroke="#252525" stroke-linecap="round" stroke-linejoin="round"/>
</svg>
