<svg width="20" height="20" viewBox="0 0 20 20" fill="none" xmlns="http://www.w3.org/2000/svg">
<rect width="20" height="20" rx="10" fill="#BCF0DA"/>
<path d="M11.1667 8.83333H13.9457C14.1445 8.83334 14.34 8.88417 14.5137 8.98099C14.6874 9.07781 14.8334 9.21741 14.938 9.38655C15.0425 9.55568 15.1021 9.74872 15.1111 9.94736C15.1201 10.146 15.0781 10.3436 14.9892 10.5215L12.9476 14.6048C12.8507 14.7988 12.7016 14.9619 12.5172 15.0758C12.3328 15.1898 12.1202 15.2501 11.9034 15.25H9.56017C9.46508 15.25 9.37 15.2383 9.27725 15.215L7.08333 14.6667M11.1667 8.83333V5.91667C11.1667 5.60725 11.0437 5.3105 10.825 5.09171C10.6062 4.87292 10.3094 4.75 10 4.75H9.94458C9.65292 4.75 9.41667 4.98625 9.41667 5.27792C9.41667 5.69442 9.29358 6.10158 9.062 6.44808L7.08333 9.41667V14.6667M11.1667 8.83333H10M7.08333 14.6667H5.91667C5.60725 14.6667 5.3105 14.5437 5.09171 14.325C4.87292 14.1062 4.75 13.8094 4.75 13.5V10C4.75 9.69058 4.87292 9.39383 5.09171 9.17504C5.3105 8.95625 5.60725 8.83333 5.91667 8.83333H7.375" stroke="#111928" stroke-linecap="round" stroke-linejoin="round"/>
</svg>
