<svg width="16" height="16" viewBox="0 0 16 16" fill="none" xmlns="http://www.w3.org/2000/svg">
<path d="M5.33333 8.00018L7.33333 10.0002L10.6667 6.66685M14 8.00018C14 8.78811 13.8448 9.56833 13.5433 10.2963C13.2417 11.0242 12.7998 11.6857 12.2426 12.2428C11.6855 12.8 11.0241 13.2419 10.2961 13.5435C9.56815 13.845 8.78793 14.0002 8 14.0002C7.21207 14.0002 6.43185 13.845 5.7039 13.5435C4.97595 13.2419 4.31451 12.8 3.75736 12.2428C3.20021 11.6857 2.75825 11.0242 2.45672 10.2963C2.15519 9.56833 2 8.78811 2 8.00018C2 6.40888 2.63214 4.88276 3.75736 3.75754C4.88258 2.63232 6.4087 2.00018 8 2.00018C9.5913 2.00018 11.1174 2.63232 12.2426 3.75754C13.3679 4.88276 14 6.40888 14 8.00018Z" stroke="#3972D5" stroke-width="1.25" stroke-linecap="round" stroke-linejoin="round"/>
</svg>
