<svg width="16" height="16" viewBox="0 0 16 16" fill="none" xmlns="http://www.w3.org/2000/svg">
<path d="M9.33333 6.66685H12.5093C12.7366 6.66686 12.96 6.72495 13.1585 6.8356C13.357 6.94625 13.5239 7.1058 13.6434 7.29909C13.7629 7.49239 13.831 7.71301 13.8413 7.94002C13.8515 8.16704 13.8036 8.39291 13.702 8.59618L11.3687 13.2628C11.2579 13.4845 11.0876 13.6709 10.8768 13.8011C10.666 13.9314 10.4231 14.0003 10.1753 14.0002H7.49733C7.38867 14.0002 7.28 13.9869 7.174 13.9602L4.66667 13.3335M9.33333 6.66685V3.33352C9.33333 2.97989 9.19286 2.64076 8.94281 2.39071C8.69276 2.14066 8.35362 2.00018 8 2.00018H7.93667C7.60333 2.00018 7.33333 2.27018 7.33333 2.60352C7.33333 3.07952 7.19267 3.54485 6.928 3.94085L4.66667 7.33352V13.3335M9.33333 6.66685H8M4.66667 13.3335H3.33333C2.97971 13.3335 2.64057 13.193 2.39052 12.943C2.14048 12.6929 2 12.3538 2 12.0002V8.00018C2 7.64656 2.14048 7.30742 2.39052 7.05737C2.64057 6.80733 2.97971 6.66685 3.33333 6.66685H5" stroke="#3972D5" stroke-width="1.25" stroke-linecap="round" stroke-linejoin="round"/>
</svg>
