<svg width="16" height="16" viewBox="0 0 16 16" fill="none" xmlns="http://www.w3.org/2000/svg">
<path d="M9.88627 6.55247C10.3864 6.05237 10.6673 5.37409 10.6673 4.66685C10.6673 3.95961 10.3864 3.28133 9.88627 2.78123C9.38617 2.28113 8.7079 2.00018 8.00065 2.00018C7.29341 2.00018 6.61513 2.28113 6.11503 2.78123C5.61494 3.28133 5.33398 3.95961 5.33398 4.66685C5.33398 5.37409 5.61494 6.05237 6.11503 6.55247C6.61513 7.05257 7.29341 7.33352 8.00065 7.33352C8.7079 7.33352 9.38617 7.05257 9.88627 6.55247Z" stroke="#3972D5" stroke-width="1.25" stroke-linecap="round" stroke-linejoin="round"/>
<path d="M4.70082 10.7004C5.57599 9.82518 6.76297 9.33352 8.00065 9.33352C9.23833 9.33352 10.4253 9.82518 11.3005 10.7004C12.1757 11.5755 12.6673 12.7625 12.6673 14.0002H3.33398C3.33398 12.7625 3.82565 11.5755 4.70082 10.7004Z" stroke="#3972D5" stroke-width="1.25" stroke-linecap="round" stroke-linejoin="round"/>
</svg>
